<svg width="64" height="64" viewBox="0 0 64 64" fill="none" xmlns="http://www.w3.org/2000/svg">
<rect width="64" height="64" rx="32" fill="#F2F4F7"/>
<path d="M32.6667 20.0003H26.4C24.1598 20.0003 23.0397 20.0003 22.184 20.4363C21.4314 20.8198 20.8195 21.4317 20.436 22.1844C20 23.04 20 24.1601 20 26.4003V37.6003C20 39.8405 20 40.9606 20.436 41.8163C20.8195 42.5689 21.4314 43.1809 22.184 43.5644C23.0397 44.0003 24.1598 44.0003 26.4 44.0003H38.6667C39.9066 44.0003 40.5266 44.0003 41.0353 43.864C42.4156 43.4942 43.4938 42.416 43.8637 41.0356C44 40.5269 44 39.907 44 38.667M41.3333 26.667V18.667M37.3333 22.667H45.3333M30 27.3337C30 28.8064 28.8061 30.0003 27.3333 30.0003C25.8606 30.0003 24.6667 28.8064 24.6667 27.3337C24.6667 25.8609 25.8606 24.667 27.3333 24.667C28.8061 24.667 30 25.8609 30 27.3337ZM35.9867 31.8912L24.7082 42.1444C24.0738 42.7211 23.7566 43.0095 23.7286 43.2593C23.7043 43.4758 23.7873 43.6905 23.9509 43.8344C24.1397 44.0003 24.5684 44.0003 25.4257 44.0003H37.9413C39.8602 44.0003 40.8196 44.0003 41.5732 43.678C42.5193 43.2733 43.2729 42.5196 43.6776 41.5736C44 40.82 44 39.8605 44 37.9416C44 37.296 44 36.9732 43.9294 36.6725C43.8407 36.2947 43.6706 35.9408 43.431 35.6355C43.2403 35.3926 42.9883 35.1909 42.4841 34.7876L38.7544 31.8039C38.2499 31.4002 37.9976 31.1984 37.7197 31.1271C37.4748 31.0644 37.2172 31.0725 36.9767 31.1506C36.7039 31.2392 36.4648 31.4565 35.9867 31.8912Z" stroke="#475467" stroke-width="2.66667" stroke-linecap="round" stroke-linejoin="round"/>
</svg>
