<svg width="52" height="52" viewBox="0 0 52 52" fill="none" xmlns="http://www.w3.org/2000/svg">
<g filter="url(#filter0_d_1006_1885)">
<rect x="2" y="1" width="48" height="48" rx="10" fill="white"/>
<path d="M27 24H31.8C32.9201 24 33.4802 24 33.908 24.218C34.2843 24.4097 34.5903 24.7157 34.782 25.092C35 25.5198 35 26.0799 35 27.2V34M27 34V19.2C27 18.0799 27 17.5198 26.782 17.092C26.5903 16.7157 26.2843 16.4097 25.908 16.218C25.4802 16 24.9201 16 23.8 16H20.2C19.0799 16 18.5198 16 18.092 16.218C17.7157 16.4097 17.4097 16.7157 17.218 17.092C17 17.5198 17 18.0799 17 19.2V34M36 34H16M20.5 20H23.5M20.5 24H23.5M20.5 28H23.5" stroke="#344054" stroke-width="2" stroke-linecap="round" stroke-linejoin="round"/>
<rect x="2.5" y="1.5" width="47" height="47" rx="9.5" stroke="#E4E7EC"/>
</g>
<defs>
<filter id="filter0_d_1006_1885" x="0" y="0" width="52" height="52" filterUnits="userSpaceOnUse" color-interpolation-filters="sRGB">
<feFlood flood-opacity="0" result="BackgroundImageFix"/>
<feColorMatrix in="SourceAlpha" type="matrix" values="0 0 0 0 0 0 0 0 0 0 0 0 0 0 0 0 0 0 127 0" result="hardAlpha"/>
<feOffset dy="1"/>
<feGaussianBlur stdDeviation="1"/>
<feColorMatrix type="matrix" values="0 0 0 0 0.0627451 0 0 0 0 0.0941176 0 0 0 0 0.156863 0 0 0 0.05 0"/>
<feBlend mode="normal" in2="BackgroundImageFix" result="effect1_dropShadow_1006_1885"/>
<feBlend mode="normal" in="SourceGraphic" in2="effect1_dropShadow_1006_1885" result="shape"/>
</filter>
</defs>
</svg>
