<?xml version="1.0" encoding="UTF-8"?>
<svg xmlns="http://www.w3.org/2000/svg" xmlns:xlink="http://www.w3.org/1999/xlink" width="20px" height="20px" viewBox="0 0 20 20" version="1.1">
<g id="surface1">
<path style="fill-rule:nonzero;fill-opacity:1;stroke-width:2;stroke-linecap:butt;stroke-linejoin:miter;stroke:#969DB1;stroke-opacity:1;stroke-miterlimit:4;fill:transparent" d="M 9 4.000781 L 27 4.000781 C 29.763281 4.000781 31.999219 6.236719 31.999219 9 L 31.999219 27 C 31.999219 29.763281 29.763281 31.999219 27 31.999219 L 9 31.999219 C 6.236719 31.999219 4.000781 29.763281 4.000781 27 L 4.000781 9 C 4.000781 6.236719 6.236719 4.000781 9 4.000781 Z M 9 4.000781 " transform="matrix(0.555556,0,0,0.555556,0,0)"/>
<path style=" stroke:none;fill-rule:nonzero;fill:#969DB1;fill-opacity:1;" d="M 10.59375 10 L 13.234375 7.378906 L 14.199219 6.421875 C 14.316406 6.304688 14.394531 6.15625 14.429688 5.996094 C 14.460938 5.835938 14.445312 5.667969 14.378906 5.515625 C 14.316406 5.363281 14.210938 5.230469 14.070312 5.140625 C 13.933594 5.050781 13.769531 5 13.605469 5 L 6.394531 5 C 6.230469 5 6.066406 5.050781 5.929688 5.140625 C 5.789062 5.230469 5.683594 5.363281 5.621094 5.515625 C 5.554688 5.667969 5.539062 5.835938 5.570312 5.996094 C 5.605469 6.15625 5.683594 6.304688 5.800781 6.421875 L 9.40625 10 L 5.800781 13.578125 C 5.683594 13.695312 5.605469 13.84375 5.570312 14.003906 C 5.539062 14.164062 5.554688 14.332031 5.621094 14.484375 C 5.683594 14.636719 5.789062 14.769531 5.929688 14.859375 C 6.066406 14.949219 6.230469 15 6.394531 15 L 13.605469 15 C 13.769531 15 13.933594 14.949219 14.070312 14.859375 C 14.210938 14.769531 14.316406 14.636719 14.378906 14.484375 C 14.445312 14.332031 14.460938 14.164062 14.429688 14.003906 C 14.394531 13.84375 14.316406 13.695312 14.199219 13.578125 Z M 13.605469 5.832031 L 12.765625 6.667969 L 7.234375 6.667969 L 6.394531 5.832031 Z M 6.394531 14.167969 L 10 10.589844 L 13.605469 14.167969 Z M 6.394531 14.167969 "/>
</g>
</svg>
