<svg width="20" height="20" viewBox="0.5 2 23 20" fill="none" xmlns="http://www.w3.org/2000/svg">
<g clip-path="url(#clip0_5156_52173)">
<rect x="3" y="3" width="18" height="18" rx="5" fill="transparent" stroke="#969DB1" stroke-width="1.5"/>
<path fill-rule="evenodd" clip-rule="evenodd" d="M15.4754 16.7392C15.8241 17.0872 16.3888 17.0869 16.7371 16.7385C17.0857 16.3899 17.0857 15.8248 16.7371 15.4761L12.7064 11.4455C12.3159 11.055 11.6827 11.055 11.2922 11.4455L7.26154 15.4761C6.91294 15.8248 6.91294 16.3899 7.26154 16.7385C7.60988 17.0869 8.17454 17.0872 8.52325 16.7392L11.9993 13.2707L15.4754 16.7392Z" fill="#969DB1"/>
<path fill-rule="evenodd" clip-rule="evenodd" d="M8.52325 7.26076C8.17454 6.91281 7.60988 6.91312 7.26154 7.26145C6.91294 7.61005 6.91294 8.17525 7.26154 8.52385L11.2922 12.5545C11.6827 12.945 12.3159 12.945 12.7064 12.5545L16.7371 8.52385C17.0857 8.17525 17.0857 7.61005 16.7371 7.26145C16.3888 6.91312 15.8241 6.91281 15.4754 7.26076L11.9993 10.7293L8.52325 7.26076Z" fill="#969DB1"/>
</g>
<defs>
<clipPath id="clip0_5156_52173">
<rect width="24" height="24" fill="white"/>
</clipPath>
</defs>
</svg>
