<svg width="33" height="33" viewBox="16 -0.5 1 33" fill="none" xmlns="http://www.w3.org/2000/svg">
<g clip-path="url(#clip0_1_864)">
<path d="M1.08275 20.0859C-1.87747 8.88051 1.00046 4.14308 12.5944 1.13632C24.1884 -1.87045 29.0399 0.862451 31.9999 12.0679C34.9602 23.2734 32.0822 28.0108 20.4884 31.0175C8.89433 34.0242 4.04294 31.2914 1.08275 20.0859Z" fill="#2E6CEE" fill-opacity="0.2"/>
<path d="M14.3475 8.79156L9.14094 13.9596C7.95664 15.1352 7.95664 17.0411 9.14094 18.2166L14.3245 23.3618C15.5088 24.5374 17.4289 24.5374 18.6132 23.3618L23.8198 18.1938C25.0041 17.0182 25.0041 15.1123 23.8198 13.9368L18.6363 8.79156C17.452 7.61602 15.5318 7.61602 14.3475 8.79156Z" fill="#2E6CEE"/>
</g>
<defs>
<clipPath id="clip0_1_864">
<rect width="110" height="32.1538" fill="white"/>
</clipPath>
</defs>
</svg>
