<svg width="22" height="22" viewBox="0 0 22 22" fill="none" xmlns="http://www.w3.org/2000/svg">
<path d="M11.1591 7.27273H13.4943V13.2557C13.4915 13.8239 13.348 14.3239 13.0639 14.7557C12.7827 15.1847 12.3935 15.5199 11.8963 15.7614C11.402 16 10.8324 16.1193 10.1875 16.1193C9.62784 16.1193 9.11648 16.0227 8.65341 15.8295C8.19034 15.6335 7.82102 15.3267 7.54545 14.9091C7.26989 14.4886 7.13352 13.9432 7.13636 13.2727H9.50568C9.5142 13.4915 9.55114 13.6761 9.61648 13.8267C9.68466 13.9773 9.77841 14.0909 9.89773 14.1676C10.0199 14.2415 10.1676 14.2784 10.3409 14.2784C10.517 14.2784 10.6648 14.2401 10.7841 14.1634C10.9063 14.0866 10.9986 13.973 11.0611 13.8224C11.1236 13.669 11.1563 13.4801 11.1591 13.2557V7.27273Z" fill="#A4A5A6"/>
<path fill-rule="evenodd" clip-rule="evenodd" d="M21 15.6857L21 6.31429C21 3.04762 18.6879 1 15.4148 1L6.58516 1C3.31208 1 1 3.0381 1 6.31429L1 15.6857C1 18.9619 3.31208 21 6.58516 21L15.4148 21C18.6879 21 21 18.9619 21 15.6857Z" stroke="#A4A5A6" stroke-width="1.5" stroke-linecap="round" stroke-linejoin="round"/>
</svg>
