<svg width="314" height="35" viewBox="0 0 314 35" fill="none" xmlns="http://www.w3.org/2000/svg">
<path d="M148.4 12.8265H147.128V4.11768H154.009V12.8265H152.736V5.29121H148.4V12.8265Z" fill="#333333" fill-opacity="0.8"/>
<path d="M156.738 6.44003H161.222V12.8265H160.011V7.55179H157.862L157.677 10.5659C157.635 11.3153 157.442 11.8918 157.096 12.2953C156.75 12.6906 156.281 12.8883 155.688 12.8883C155.531 12.8883 155.358 12.8759 155.169 12.8512L155.045 11.69C155.152 11.6983 155.313 11.7024 155.527 11.7024C155.857 11.7024 156.091 11.62 156.231 11.4553C156.371 11.2906 156.454 11.0024 156.478 10.5906L156.738 6.44003Z" fill="#333333" fill-opacity="0.8"/>
<path d="M165.412 6.3165C166.203 6.3165 166.824 6.57591 167.277 7.09473C167.738 7.60532 167.969 8.32179 167.969 9.24415V12.8265H167.104L166.82 11.8259C166.614 12.1471 166.338 12.4147 165.993 12.6289C165.647 12.843 165.231 12.95 164.745 12.95C164.317 12.95 163.934 12.8636 163.596 12.6906C163.258 12.5177 162.995 12.2789 162.805 11.9741C162.616 11.6612 162.521 11.3112 162.521 10.9241C162.521 10.323 162.76 9.84121 163.238 9.47885C163.715 9.1165 164.407 8.93532 165.313 8.93532H166.758C166.725 8.43297 166.585 8.04591 166.338 7.77415C166.091 7.49415 165.762 7.35415 165.35 7.35415C165.037 7.35415 164.761 7.42826 164.523 7.5765C164.284 7.72474 164.103 7.91826 163.979 8.15709L162.855 7.97179C163.02 7.46121 163.337 7.05768 163.806 6.76121C164.275 6.46474 164.811 6.3165 165.412 6.3165ZM165.004 11.9247C165.523 11.9247 165.943 11.7559 166.264 11.4183C166.594 11.0724 166.758 10.5989 166.758 9.99768V9.92356H165.35C164.28 9.92356 163.744 10.2447 163.744 10.8871C163.744 11.2 163.86 11.4512 164.09 11.6406C164.321 11.83 164.625 11.9247 165.004 11.9247Z" fill="#333333" fill-opacity="0.8"/>
<path d="M172.126 12.8265H170.915V7.55179H168.704V6.44003H174.337V7.55179H172.126V12.8265Z" fill="#333333" fill-opacity="0.8"/>
<path d="M178.175 12.8512C177.516 12.8512 176.927 12.7153 176.408 12.4436C175.898 12.1636 175.498 11.7806 175.21 11.2947C174.922 10.8089 174.778 10.253 174.778 9.62709C174.778 9.00121 174.922 8.44532 175.21 7.95944C175.498 7.47356 175.898 7.09474 176.408 6.82297C176.927 6.54297 177.516 6.40297 178.175 6.40297V4.11768H179.348V6.40297C180.007 6.40297 180.592 6.54297 181.103 6.82297C181.621 7.09474 182.025 7.47356 182.313 7.95944C182.601 8.44532 182.745 9.00121 182.745 9.62709C182.745 10.253 182.601 10.8089 182.313 11.2947C182.025 11.7806 181.621 12.1636 181.103 12.4436C180.592 12.7153 180.007 12.8512 179.348 12.8512V15.3589H178.175V12.8512ZM178.175 7.50238C177.549 7.50238 177.038 7.70003 176.643 8.09532C176.248 8.49062 176.05 9.00121 176.05 9.62709C176.05 10.253 176.248 10.7677 176.643 11.1712C177.038 11.5665 177.549 11.7641 178.175 11.7641V7.50238ZM179.348 11.7641C179.983 11.7641 180.497 11.5665 180.893 11.1712C181.288 10.7677 181.485 10.253 181.485 9.62709C181.485 9.00121 181.288 8.49062 180.893 8.09532C180.497 7.70003 179.983 7.50238 179.348 7.50238V11.7641Z" fill="#333333" fill-opacity="0.8"/>
<path d="M187.029 12.95C186.378 12.95 185.798 12.81 185.287 12.53C184.776 12.25 184.377 11.8589 184.089 11.3565C183.801 10.8541 183.656 10.2818 183.656 9.63944C183.656 8.99709 183.801 8.42474 184.089 7.92238C184.377 7.42003 184.776 7.02885 185.287 6.74885C185.798 6.46062 186.378 6.3165 187.029 6.3165C187.679 6.3165 188.26 6.46062 188.771 6.74885C189.281 7.02885 189.681 7.42003 189.969 7.92238C190.257 8.42474 190.401 8.99709 190.401 9.63944C190.401 10.2818 190.257 10.8541 189.969 11.3565C189.681 11.8589 189.281 12.25 188.771 12.53C188.26 12.81 187.679 12.95 187.029 12.95ZM187.029 11.8383C187.655 11.8383 188.161 11.6365 188.548 11.233C188.944 10.8294 189.141 10.2983 189.141 9.63944C189.141 8.98062 188.944 8.44944 188.548 8.04591C188.161 7.63415 187.655 7.42826 187.029 7.42826C186.403 7.42826 185.896 7.63415 185.509 8.04591C185.122 8.44944 184.929 8.98062 184.929 9.63944C184.929 10.29 185.122 10.8212 185.509 11.233C185.896 11.6365 186.403 11.8383 187.029 11.8383Z" fill="#333333" fill-opacity="0.8"/>
<path d="M191.699 15.3589V6.44003H192.576L192.873 7.50238C193.136 7.16473 193.47 6.88473 193.874 6.66238C194.285 6.43179 194.763 6.3165 195.306 6.3165C195.908 6.3165 196.443 6.46062 196.912 6.74885C197.382 7.02885 197.748 7.42003 198.012 7.92238C198.284 8.42474 198.419 8.99709 198.419 9.63944C198.419 10.2736 198.284 10.8418 198.012 11.3441C197.748 11.8465 197.382 12.2418 196.912 12.53C196.443 12.81 195.908 12.95 195.306 12.95C194.779 12.95 194.314 12.843 193.911 12.6289C193.507 12.4065 193.174 12.1347 192.91 11.8136V15.3589H191.699ZM195.047 11.863C195.459 11.863 195.825 11.7683 196.146 11.5789C196.468 11.3894 196.715 11.1259 196.888 10.7883C197.069 10.4506 197.159 10.0677 197.159 9.63944C197.159 9.21121 197.069 8.82826 196.888 8.49062C196.715 8.15297 196.468 7.88944 196.146 7.70003C195.825 7.51062 195.459 7.41591 195.047 7.41591C194.635 7.41591 194.265 7.51062 193.935 7.70003C193.614 7.88944 193.363 8.15297 193.182 8.49062C193.001 8.82826 192.91 9.21121 192.91 9.63944C192.91 10.0677 193.001 10.4506 193.182 10.7883C193.363 11.1259 193.614 11.3894 193.935 11.5789C194.265 11.7683 194.635 11.863 195.047 11.863Z" fill="#333333" fill-opacity="0.8"/>
<path d="M200.895 12.8265H199.722V6.44003H201.673L203.267 11.1836H203.44L205.095 6.44003H207.01V12.8265H205.836V7.81121H205.663L203.897 12.8265H202.76L201.08 7.81121H200.895V12.8265Z" fill="#333333" fill-opacity="0.8"/>
<path d="M211.181 6.3165C211.971 6.3165 212.593 6.57591 213.046 7.09473C213.507 7.60532 213.738 8.32179 213.738 9.24415V12.8265H212.873L212.589 11.8259C212.383 12.1471 212.107 12.4147 211.761 12.6289C211.415 12.843 210.999 12.95 210.514 12.95C210.085 12.95 209.702 12.8636 209.365 12.6906C209.027 12.5177 208.764 12.2789 208.574 11.9741C208.385 11.6612 208.29 11.3112 208.29 10.9241C208.29 10.323 208.529 9.84121 209.006 9.47885C209.484 9.1165 210.176 8.93532 211.082 8.93532H212.527C212.494 8.43297 212.354 8.04591 212.107 7.77415C211.86 7.49415 211.531 7.35415 211.119 7.35415C210.806 7.35415 210.53 7.42826 210.291 7.5765C210.052 7.72474 209.871 7.91826 209.748 8.15709L208.624 7.97179C208.788 7.46121 209.105 7.05768 209.575 6.76121C210.044 6.46474 210.579 6.3165 211.181 6.3165ZM210.773 11.9247C211.292 11.9247 211.712 11.7559 212.033 11.4183C212.362 11.0724 212.527 10.5989 212.527 9.99768V9.92356H211.119C210.048 9.92356 209.513 10.2447 209.513 10.8871C209.513 11.2 209.628 11.4512 209.859 11.6406C210.089 11.83 210.394 11.9247 210.773 11.9247Z" fill="#333333" fill-opacity="0.8"/>
<path d="M217.62 14.7165V11.7147H217.756C218.11 11.7147 218.377 11.5583 218.559 11.2453C218.748 10.9324 218.872 10.4424 218.929 9.77532L219.238 6.44003H223.759V11.7147H224.834V14.7165H223.623V12.8265H218.83V14.7165H217.62ZM222.549 11.7147V7.55179H220.362L220.152 9.77532C220.103 10.3024 220.029 10.7183 219.93 11.023C219.839 11.3277 219.712 11.5583 219.547 11.7147H222.549Z" fill="#333333" fill-opacity="0.8"/>
<path d="M227.08 6.44003H231.564V12.8265H230.353V7.55179H228.204L228.018 10.5659C227.977 11.3153 227.784 11.8918 227.438 12.2953C227.092 12.6906 226.623 12.8883 226.03 12.8883C225.873 12.8883 225.7 12.8759 225.511 12.8512L225.387 11.69C225.494 11.6983 225.655 11.7024 225.869 11.7024C226.198 11.7024 226.433 11.62 226.573 11.4553C226.713 11.2906 226.795 11.0024 226.82 10.5906L227.08 6.44003Z" fill="#333333" fill-opacity="0.8"/>
<path d="M238.175 6.44003V12.8265H236.964V10.6524H235.692L234.259 12.8265H232.863L234.432 10.4794C234.004 10.323 233.662 10.0759 233.407 9.73826C233.16 9.40062 233.036 9.00532 233.036 8.55238C233.036 8.14885 233.139 7.7865 233.345 7.46532C233.551 7.14415 233.839 6.89297 234.21 6.71179C234.58 6.53062 235 6.44003 235.47 6.44003H238.175ZM236.964 9.59003V7.51474H235.47C235.107 7.51474 234.815 7.60944 234.593 7.79885C234.37 7.98826 234.259 8.23944 234.259 8.55238C234.259 8.86532 234.37 9.1165 234.593 9.30591C234.815 9.49532 235.107 9.59003 235.47 9.59003H236.964Z" fill="#333333" fill-opacity="0.8"/>
<path d="M244.023 12.8265H242.812V6.44003H248.247V12.8265H247.037V7.55179H244.023V12.8265Z" fill="#333333" fill-opacity="0.8"/>
<path d="M249.917 15.3589V6.44003H250.795L251.091 7.50238C251.355 7.16473 251.688 6.88473 252.092 6.66238C252.503 6.43179 252.981 6.3165 253.525 6.3165C254.126 6.3165 254.661 6.46062 255.13 6.74885C255.6 7.02885 255.966 7.42003 256.23 7.92238C256.502 8.42474 256.637 8.99709 256.637 9.63944C256.637 10.2736 256.502 10.8418 256.23 11.3441C255.966 11.8465 255.6 12.2418 255.13 12.53C254.661 12.81 254.126 12.95 253.525 12.95C252.997 12.95 252.532 12.843 252.129 12.6289C251.725 12.4065 251.392 12.1347 251.128 11.8136V15.3589H249.917ZM253.265 11.863C253.677 11.863 254.043 11.7683 254.365 11.5789C254.686 11.3894 254.933 11.1259 255.106 10.7883C255.287 10.4506 255.377 10.0677 255.377 9.63944C255.377 9.21121 255.287 8.82826 255.106 8.49062C254.933 8.15297 254.686 7.88944 254.365 7.70003C254.043 7.51062 253.677 7.41591 253.265 7.41591C252.853 7.41591 252.483 7.51062 252.153 7.70003C251.832 7.88944 251.581 8.15297 251.4 8.49062C251.219 8.82826 251.128 9.21121 251.128 9.63944C251.128 10.0677 251.219 10.4506 251.4 10.7883C251.581 11.1259 251.832 11.3894 252.153 11.5789C252.483 11.7683 252.853 11.863 253.265 11.863Z" fill="#333333" fill-opacity="0.8"/>
<path d="M260.941 12.95C260.291 12.95 259.71 12.81 259.2 12.53C258.689 12.25 258.29 11.8589 258.001 11.3565C257.713 10.8541 257.569 10.2818 257.569 9.63944C257.569 8.99709 257.713 8.42474 258.001 7.92238C258.29 7.42003 258.689 7.02885 259.2 6.74885C259.71 6.46062 260.291 6.3165 260.941 6.3165C261.592 6.3165 262.173 6.46062 262.683 6.74885C263.194 7.02885 263.593 7.42003 263.881 7.92238C264.17 8.42474 264.314 8.99709 264.314 9.63944C264.314 10.2818 264.17 10.8541 263.881 11.3565C263.593 11.8589 263.194 12.25 262.683 12.53C262.173 12.81 261.592 12.95 260.941 12.95ZM260.941 11.8383C261.567 11.8383 262.074 11.6365 262.461 11.233C262.856 10.8294 263.054 10.2983 263.054 9.63944C263.054 8.98062 262.856 8.44944 262.461 8.04591C262.074 7.63415 261.567 7.42826 260.941 7.42826C260.316 7.42826 259.809 7.63415 259.422 8.04591C259.035 8.44944 258.841 8.98062 258.841 9.63944C258.841 10.29 259.035 10.8212 259.422 11.233C259.809 11.6365 260.316 11.8383 260.941 11.8383Z" fill="#333333" fill-opacity="0.8"/>
<path d="M269.849 9.47885C270.178 9.60238 270.442 9.80415 270.64 10.0841C270.846 10.3559 270.948 10.6771 270.948 11.0477C270.948 11.3853 270.85 11.69 270.652 11.9618C270.463 12.2336 270.195 12.4477 269.849 12.6041C269.503 12.7524 269.108 12.8265 268.663 12.8265H265.612V6.44003H268.552C268.972 6.44003 269.347 6.51415 269.676 6.66238C270.006 6.81062 270.261 7.01238 270.442 7.26768C270.631 7.52297 270.726 7.81532 270.726 8.14474C270.726 8.45768 270.648 8.72944 270.491 8.96003C270.343 9.18238 270.129 9.35532 269.849 9.47885ZM266.823 7.46532V9.03415H268.552C268.832 9.03415 269.063 8.96415 269.244 8.82415C269.425 8.67591 269.516 8.4865 269.516 8.25591C269.516 8.02532 269.425 7.83591 269.244 7.68768C269.063 7.53944 268.832 7.46532 268.552 7.46532H266.823ZM268.663 11.8012C268.984 11.8012 269.244 11.7189 269.441 11.5541C269.639 11.3894 269.738 11.1753 269.738 10.9118C269.738 10.6483 269.639 10.4341 269.441 10.2694C269.244 10.1047 268.984 10.0224 268.663 10.0224H266.823V11.8012H268.663Z" fill="#333333" fill-opacity="0.8"/>
<path d="M278.484 9.59003C278.484 9.75473 278.48 9.88238 278.471 9.97297H273.197C273.262 10.5412 273.485 10.9941 273.864 11.3318C274.242 11.6694 274.724 11.8383 275.309 11.8383C275.712 11.8383 276.071 11.76 276.384 11.6036C276.705 11.4389 276.948 11.2247 277.112 10.9612L278.249 11.1465C278.002 11.723 277.602 12.1677 277.051 12.4806C276.507 12.7936 275.902 12.95 275.235 12.95C274.601 12.95 274.032 12.81 273.53 12.53C273.028 12.2418 272.637 11.8465 272.357 11.3441C272.077 10.8418 271.937 10.2736 271.937 9.63944C271.937 8.99709 272.077 8.42474 272.357 7.92238C272.637 7.42003 273.024 7.02885 273.518 6.74885C274.012 6.46062 274.576 6.3165 275.21 6.3165C275.836 6.3165 276.396 6.46062 276.89 6.74885C277.392 7.02885 277.784 7.42003 278.064 7.92238C278.344 8.4165 278.484 8.97238 278.484 9.59003ZM275.21 7.39121C274.724 7.39121 274.304 7.53532 273.95 7.82356C273.604 8.11179 273.374 8.49885 273.258 8.98474H277.162C277.055 8.50709 276.824 8.12415 276.47 7.83591C276.124 7.53944 275.704 7.39121 275.21 7.39121Z" fill="#333333" fill-opacity="0.8"/>
<path d="M278.733 14.7165V11.7147H278.869C279.223 11.7147 279.491 11.5583 279.672 11.2453C279.861 10.9324 279.985 10.4424 280.043 9.77532L280.351 6.44003H284.873V11.7147H285.947V14.7165H284.737V12.8265H279.944V14.7165H278.733ZM283.662 11.7147V7.55179H281.475L281.265 9.77532C281.216 10.3024 281.142 10.7183 281.043 11.023C280.953 11.3277 280.825 11.5583 280.66 11.7147H283.662Z" fill="#333333" fill-opacity="0.8"/>
<path d="M293.056 9.59003C293.056 9.75473 293.052 9.88238 293.044 9.97297H287.769C287.835 10.5412 288.057 10.9941 288.436 11.3318C288.815 11.6694 289.297 11.8383 289.882 11.8383C290.285 11.8383 290.643 11.76 290.956 11.6036C291.277 11.4389 291.52 11.2247 291.685 10.9612L292.822 11.1465C292.574 11.723 292.175 12.1677 291.623 12.4806C291.08 12.7936 290.474 12.95 289.807 12.95C289.173 12.95 288.605 12.81 288.103 12.53C287.6 12.2418 287.209 11.8465 286.929 11.3441C286.649 10.8418 286.509 10.2736 286.509 9.63944C286.509 8.99709 286.649 8.42474 286.929 7.92238C287.209 7.42003 287.596 7.02885 288.09 6.74885C288.584 6.46062 289.149 6.3165 289.783 6.3165C290.409 6.3165 290.969 6.46062 291.463 6.74885C291.965 7.02885 292.356 7.42003 292.636 7.92238C292.916 8.4165 293.056 8.97238 293.056 9.59003ZM289.783 7.39121C289.297 7.39121 288.877 7.53532 288.523 7.82356C288.177 8.11179 287.946 8.49885 287.831 8.98474H291.734C291.627 8.50709 291.397 8.12415 291.043 7.83591C290.697 7.53944 290.277 7.39121 289.783 7.39121Z" fill="#333333" fill-opacity="0.8"/>
<path d="M298.513 9.0465V6.44003H299.723V12.8265H298.513V10.1583H295.437V12.8265H294.226V6.44003H295.437V9.0465H298.513Z" fill="#333333" fill-opacity="0.8"/>
<path d="M303.183 12.8265H301.392V6.44003H302.566V11.4677H302.751L305.333 6.44003H307.124V12.8265H305.95V7.81121H305.765L303.183 12.8265Z" fill="#333333" fill-opacity="0.8"/>
<path d="M313.716 6.44003V12.8265H312.505V10.6524H311.233L309.8 12.8265H308.404L309.973 10.4794C309.545 10.323 309.203 10.0759 308.948 9.73826C308.701 9.40062 308.577 9.00532 308.577 8.55238C308.577 8.14885 308.68 7.7865 308.886 7.46532C309.092 7.14415 309.38 6.89297 309.751 6.71179C310.121 6.53062 310.541 6.44003 311.011 6.44003H313.716ZM312.505 9.59003V7.51474H311.011C310.648 7.51474 310.356 7.60944 310.134 7.79885C309.911 7.98826 309.8 8.23944 309.8 8.55238C309.8 8.86532 309.911 9.1165 310.134 9.30591C310.356 9.49532 310.648 9.59003 311.011 9.59003H312.505Z" fill="#333333" fill-opacity="0.8"/>
<path d="M150.006 30.45C149.356 30.45 148.775 30.31 148.264 30.03C147.754 29.75 147.354 29.3589 147.066 28.8565C146.778 28.3541 146.634 27.7818 146.634 27.1394C146.634 26.4971 146.778 25.9247 147.066 25.4224C147.354 24.92 147.754 24.5289 148.264 24.2489C148.775 23.9606 149.356 23.8165 150.006 23.8165C150.657 23.8165 151.237 23.9606 151.748 24.2489C152.259 24.5289 152.658 24.92 152.946 25.4224C153.234 25.9247 153.379 26.4971 153.379 27.1394C153.379 27.7818 153.234 28.3541 152.946 28.8565C152.658 29.3589 152.259 29.75 151.748 30.03C151.237 30.31 150.657 30.45 150.006 30.45ZM150.006 29.3383C150.632 29.3383 151.139 29.1365 151.526 28.733C151.921 28.3294 152.119 27.7983 152.119 27.1394C152.119 26.4806 151.921 25.9494 151.526 25.5459C151.139 25.1341 150.632 24.9283 150.006 24.9283C149.38 24.9283 148.874 25.1341 148.487 25.5459C148.1 25.9494 147.906 26.4806 147.906 27.1394C147.906 27.79 148.1 28.3212 148.487 28.733C148.874 29.1365 149.38 29.3383 150.006 29.3383Z" fill="#333333" fill-opacity="0.8"/>
<path d="M158.963 26.5465V23.94H160.174V30.3265H158.963V27.6583H155.887V30.3265H154.677V23.94H155.887V26.5465H158.963Z" fill="#333333" fill-opacity="0.8"/>
<path d="M162.794 23.94H167.278V30.3265H166.067V25.0518H163.918L163.732 28.0659C163.691 28.8153 163.498 29.3918 163.152 29.7953C162.806 30.1906 162.337 30.3883 161.744 30.3883C161.587 30.3883 161.414 30.3759 161.225 30.3512L161.101 29.19C161.208 29.1983 161.369 29.2024 161.583 29.2024C161.912 29.2024 162.147 29.12 162.287 28.9553C162.427 28.7906 162.51 28.5024 162.534 28.0906L162.794 23.94Z" fill="#333333" fill-opacity="0.8"/>
<path d="M171.468 23.8165C172.258 23.8165 172.88 24.0759 173.333 24.5947C173.794 25.1053 174.025 25.8218 174.025 26.7441V30.3265H173.16L172.876 29.3259C172.67 29.6471 172.394 29.9147 172.048 30.1289C171.703 30.343 171.287 30.45 170.801 30.45C170.373 30.45 169.99 30.3636 169.652 30.1906C169.314 30.0177 169.051 29.7789 168.861 29.4741C168.672 29.1612 168.577 28.8112 168.577 28.4241C168.577 27.823 168.816 27.3412 169.294 26.9789C169.771 26.6165 170.463 26.4353 171.369 26.4353H172.814C172.781 25.933 172.641 25.5459 172.394 25.2741C172.147 24.9941 171.818 24.8541 171.406 24.8541C171.093 24.8541 170.817 24.9283 170.578 25.0765C170.34 25.2247 170.158 25.4183 170.035 25.6571L168.911 25.4718C169.075 24.9612 169.393 24.5577 169.862 24.2612C170.331 23.9647 170.867 23.8165 171.468 23.8165ZM171.06 29.4247C171.579 29.4247 171.999 29.2559 172.32 28.9183C172.65 28.5724 172.814 28.0989 172.814 27.4977V27.4236H171.406C170.335 27.4236 169.8 27.7447 169.8 28.3871C169.8 28.7 169.915 28.9512 170.146 29.1406C170.377 29.33 170.681 29.4247 171.06 29.4247Z" fill="#333333" fill-opacity="0.8"/>
<path d="M177.41 30.3265H175.619V23.94H176.792V28.9677H176.978L179.559 23.94H181.351V30.3265H180.177V25.3112H179.992L177.41 30.3265ZM178.497 23.1124C177.962 23.1124 177.513 22.9724 177.151 22.6924C176.797 22.4041 176.587 21.9759 176.521 21.4077H177.509C177.55 21.6712 177.653 21.873 177.818 22.013C177.991 22.1447 178.217 22.2106 178.497 22.2106C178.777 22.2106 178.999 22.1447 179.164 22.013C179.337 21.873 179.44 21.6712 179.473 21.4077H180.474C180.399 21.9759 180.181 22.4041 179.819 22.6924C179.465 22.9724 179.024 23.1124 178.497 23.1124Z" fill="#333333" fill-opacity="0.8"/>
<path d="M187.288 26.5465V23.94H188.499V30.3265H187.288V27.6583H184.212V30.3265H183.002V23.94H184.212V26.5465H187.288Z" fill="#333333" fill-opacity="0.8"/>
<path d="M193.873 27.4359H190.044V26.2871H193.873V27.4359Z" fill="#333333" fill-opacity="0.8"/>
<path d="M200.949 30.3265H199.356L196.996 27.683H196.613V30.3265H195.403V23.94H196.613V26.5218H196.984L199.245 23.94H200.702L197.96 27.0283L200.949 30.3265Z" fill="#333333" fill-opacity="0.8"/>
<path d="M206.342 23.94H207.59L204.922 31.29C204.724 31.8418 204.465 32.2412 204.144 32.4883C203.822 32.7353 203.394 32.8589 202.859 32.8589H201.908L201.796 31.7471H202.933C203.172 31.7471 203.357 31.6936 203.489 31.5865C203.621 31.4877 203.732 31.3106 203.822 31.0553L203.958 30.6847L201.117 23.94H202.414L204.44 28.8689H204.613L206.342 23.94Z" fill="#333333" fill-opacity="0.8"/>
<path d="M208.685 32.8589V23.94H209.562L209.858 25.0024C210.122 24.6647 210.455 24.3847 210.859 24.1624C211.271 23.9318 211.748 23.8165 212.292 23.8165C212.893 23.8165 213.428 23.9606 213.898 24.2489C214.367 24.5289 214.734 24.92 214.997 25.4224C215.269 25.9247 215.405 26.4971 215.405 27.1394C215.405 27.7736 215.269 28.3418 214.997 28.8441C214.734 29.3465 214.367 29.7418 213.898 30.03C213.428 30.31 212.893 30.45 212.292 30.45C211.765 30.45 211.299 30.343 210.896 30.1289C210.492 29.9065 210.159 29.6347 209.895 29.3136V32.8589H208.685ZM212.032 29.363C212.444 29.363 212.811 29.2683 213.132 29.0789C213.453 28.8894 213.7 28.6259 213.873 28.2883C214.054 27.9506 214.145 27.5677 214.145 27.1394C214.145 26.7112 214.054 26.3283 213.873 25.9906C213.7 25.653 213.453 25.3894 213.132 25.2C212.811 25.0106 212.444 24.9159 212.032 24.9159C211.621 24.9159 211.25 25.0106 210.921 25.2C210.599 25.3894 210.348 25.653 210.167 25.9906C209.986 26.3283 209.895 26.7112 209.895 27.1394C209.895 27.5677 209.986 27.9506 210.167 28.2883C210.348 28.6259 210.599 28.8894 210.921 29.0789C211.25 29.2683 211.621 29.363 212.032 29.363Z" fill="#333333" fill-opacity="0.8"/>
<path d="M219.647 30.45C219.013 30.45 218.44 30.31 217.93 30.03C217.427 29.7418 217.036 29.3465 216.756 28.8441C216.476 28.3418 216.336 27.7736 216.336 27.1394C216.336 26.4971 216.476 25.9247 216.756 25.4224C217.036 24.92 217.427 24.5289 217.93 24.2489C218.432 23.9606 219.005 23.8165 219.647 23.8165C220.33 23.8165 220.94 23.9812 221.475 24.3106C222.019 24.64 222.406 25.1136 222.636 25.7312L221.5 25.9165C221.352 25.62 221.117 25.3812 220.796 25.2C220.483 25.0189 220.125 24.9283 219.721 24.9283C219.095 24.9283 218.585 25.1341 218.189 25.5459C217.802 25.9577 217.609 26.4889 217.609 27.1394C217.609 27.79 217.802 28.3212 218.189 28.733C218.585 29.1365 219.095 29.3383 219.721 29.3383C220.141 29.3383 220.512 29.2436 220.833 29.0541C221.162 28.8647 221.401 28.6136 221.549 28.3006L222.686 28.4859C222.455 29.1118 222.06 29.5977 221.5 29.9436C220.948 30.2812 220.33 30.45 219.647 30.45Z" fill="#333333" fill-opacity="0.8"/>
<path d="M226.742 30.45C226.091 30.45 225.51 30.31 225 30.03C224.489 29.75 224.09 29.3589 223.802 28.8565C223.513 28.3541 223.369 27.7818 223.369 27.1394C223.369 26.4971 223.513 25.9247 223.802 25.4224C224.09 24.92 224.489 24.5289 225 24.2489C225.51 23.9606 226.091 23.8165 226.742 23.8165C227.392 23.8165 227.973 23.9606 228.483 24.2489C228.994 24.5289 229.393 24.92 229.682 25.4224C229.97 25.9247 230.114 26.4971 230.114 27.1394C230.114 27.7818 229.97 28.3541 229.682 28.8565C229.393 29.3589 228.994 29.75 228.483 30.03C227.973 30.31 227.392 30.45 226.742 30.45ZM226.742 29.3383C227.368 29.3383 227.874 29.1365 228.261 28.733C228.656 28.3294 228.854 27.7983 228.854 27.1394C228.854 26.4806 228.656 25.9494 228.261 25.5459C227.874 25.1341 227.368 24.9283 226.742 24.9283C226.116 24.9283 225.609 25.1341 225.222 25.5459C224.835 25.9494 224.642 26.4806 224.642 27.1394C224.642 27.79 224.835 28.3212 225.222 28.733C225.609 29.1365 226.116 29.3383 226.742 29.3383Z" fill="#333333" fill-opacity="0.8"/>
<path d="M235.649 26.9789C235.979 27.1024 236.242 27.3041 236.44 27.5841C236.646 27.8559 236.749 28.1771 236.749 28.5477C236.749 28.8853 236.65 29.19 236.452 29.4618C236.263 29.7336 235.995 29.9477 235.649 30.1041C235.303 30.2524 234.908 30.3265 234.463 30.3265H231.412V23.94H234.352C234.772 23.94 235.147 24.0141 235.476 24.1624C235.806 24.3106 236.061 24.5124 236.242 24.7677C236.432 25.023 236.526 25.3153 236.526 25.6447C236.526 25.9577 236.448 26.2294 236.292 26.46C236.143 26.6824 235.929 26.8553 235.649 26.9789ZM232.623 24.9653V26.5341H234.352C234.632 26.5341 234.863 26.4641 235.044 26.3241C235.225 26.1759 235.316 25.9865 235.316 25.7559C235.316 25.5253 235.225 25.3359 235.044 25.1877C234.863 25.0394 234.632 24.9653 234.352 24.9653H232.623ZM234.463 29.3012C234.785 29.3012 235.044 29.2189 235.242 29.0541C235.439 28.8894 235.538 28.6753 235.538 28.4118C235.538 28.1483 235.439 27.9341 235.242 27.7694C235.044 27.6047 234.785 27.5224 234.463 27.5224H232.623V29.3012H234.463Z" fill="#333333" fill-opacity="0.8"/>
<path d="M242.866 30.3265H241.075V23.94H242.249V28.9677H242.434L245.016 23.94H246.807V30.3265H245.633V25.3112H245.448L242.866 30.3265Z" fill="#333333" fill-opacity="0.8"/>
<path d="M255.597 23.94H256.845L254.177 31.29C253.979 31.8418 253.72 32.2412 253.398 32.4883C253.077 32.7353 252.649 32.8589 252.114 32.8589H251.163L251.051 31.7471H252.188C252.427 31.7471 252.612 31.6936 252.744 31.5865C252.876 31.4877 252.987 31.3106 253.077 31.0553L253.213 30.6847L250.372 23.94H251.669L253.695 28.8689H253.868L255.597 23.94Z" fill="#333333" fill-opacity="0.8"/>
<path d="M257.94 32.8589V23.94H258.817L259.113 25.0024C259.377 24.6647 259.71 24.3847 260.114 24.1624C260.526 23.9318 261.003 23.8165 261.547 23.8165C262.148 23.8165 262.683 23.9606 263.153 24.2489C263.622 24.5289 263.988 24.92 264.252 25.4224C264.524 25.9247 264.66 26.4971 264.66 27.1394C264.66 27.7736 264.524 28.3418 264.252 28.8441C263.988 29.3465 263.622 29.7418 263.153 30.03C262.683 30.31 262.148 30.45 261.547 30.45C261.02 30.45 260.554 30.343 260.151 30.1289C259.747 29.9065 259.414 29.6347 259.15 29.3136V32.8589H257.94ZM261.287 29.363C261.699 29.363 262.066 29.2683 262.387 29.0789C262.708 28.8894 262.955 28.6259 263.128 28.2883C263.309 27.9506 263.4 27.5677 263.4 27.1394C263.4 26.7112 263.309 26.3283 263.128 25.9906C262.955 25.653 262.708 25.3894 262.387 25.2C262.066 25.0106 261.699 24.9159 261.287 24.9159C260.876 24.9159 260.505 25.0106 260.176 25.2C259.854 25.3894 259.603 25.653 259.422 25.9906C259.241 26.3283 259.15 26.7112 259.15 27.1394C259.15 27.5677 259.241 27.9506 259.422 28.2883C259.603 28.6259 259.854 28.8894 260.176 29.0789C260.505 29.2683 260.876 29.363 261.287 29.363Z" fill="#333333" fill-opacity="0.8"/>
<path d="M268.964 30.45C268.313 30.45 267.732 30.31 267.222 30.03C266.711 29.75 266.312 29.3589 266.024 28.8565C265.735 28.3541 265.591 27.7818 265.591 27.1394C265.591 26.4971 265.735 25.9247 266.024 25.4224C266.312 24.92 266.711 24.5289 267.222 24.2489C267.732 23.9606 268.313 23.8165 268.964 23.8165C269.614 23.8165 270.195 23.9606 270.705 24.2489C271.216 24.5289 271.615 24.92 271.904 25.4224C272.192 25.9247 272.336 26.4971 272.336 27.1394C272.336 27.7818 272.192 28.3541 271.904 28.8565C271.615 29.3589 271.216 29.75 270.705 30.03C270.195 30.31 269.614 30.45 268.964 30.45ZM268.964 29.3383C269.589 29.3383 270.096 29.1365 270.483 28.733C270.878 28.3294 271.076 27.7983 271.076 27.1394C271.076 26.4806 270.878 25.9494 270.483 25.5459C270.096 25.1341 269.589 24.9283 268.964 24.9283C268.338 24.9283 267.831 25.1341 267.444 25.5459C267.057 25.9494 266.864 26.4806 266.864 27.1394C266.864 27.79 267.057 28.3212 267.444 28.733C267.831 29.1365 268.338 29.3383 268.964 29.3383Z" fill="#333333" fill-opacity="0.8"/>
<path d="M279.181 30.3265H277.587L275.228 27.683H274.845V30.3265H273.634V23.94H274.845V26.5218H275.215L277.476 23.94H278.934L276.191 27.0283L279.181 30.3265Z" fill="#333333" fill-opacity="0.8"/>
<path d="M282.788 30.45C282.138 30.45 281.557 30.31 281.046 30.03C280.536 29.75 280.136 29.3589 279.848 28.8565C279.56 28.3541 279.416 27.7818 279.416 27.1394C279.416 26.4971 279.56 25.9247 279.848 25.4224C280.136 24.92 280.536 24.5289 281.046 24.2489C281.557 23.9606 282.138 23.8165 282.788 23.8165C283.439 23.8165 284.019 23.9606 284.53 24.2489C285.041 24.5289 285.44 24.92 285.728 25.4224C286.016 25.9247 286.161 26.4971 286.161 27.1394C286.161 27.7818 286.016 28.3541 285.728 28.8565C285.44 29.3589 285.041 29.75 284.53 30.03C284.019 30.31 283.439 30.45 282.788 30.45ZM282.788 29.3383C283.414 29.3383 283.921 29.1365 284.308 28.733C284.703 28.3294 284.901 27.7983 284.901 27.1394C284.901 26.4806 284.703 25.9494 284.308 25.5459C283.921 25.1341 283.414 24.9283 282.788 24.9283C282.162 24.9283 281.656 25.1341 281.269 25.5459C280.882 25.9494 280.688 26.4806 280.688 27.1394C280.688 27.79 280.882 28.3212 281.269 28.733C281.656 29.1365 282.162 29.3383 282.788 29.3383Z" fill="#333333" fill-opacity="0.8"/>
<path d="M291.696 26.9789C292.025 27.1024 292.289 27.3041 292.486 27.5841C292.692 27.8559 292.795 28.1771 292.795 28.5477C292.795 28.8853 292.696 29.19 292.499 29.4618C292.309 29.7336 292.042 29.9477 291.696 30.1041C291.35 30.2524 290.955 30.3265 290.51 30.3265H287.459V23.94H290.399C290.819 23.94 291.194 24.0141 291.523 24.1624C291.852 24.3106 292.108 24.5124 292.289 24.7677C292.478 25.023 292.573 25.3153 292.573 25.6447C292.573 25.9577 292.495 26.2294 292.338 26.46C292.19 26.6824 291.976 26.8553 291.696 26.9789ZM288.669 24.9653V26.5341H290.399C290.679 26.5341 290.909 26.4641 291.091 26.3241C291.272 26.1759 291.362 25.9865 291.362 25.7559C291.362 25.5253 291.272 25.3359 291.091 25.1877C290.909 25.0394 290.679 24.9653 290.399 24.9653H288.669ZM290.51 29.3012C290.831 29.3012 291.091 29.2189 291.288 29.0541C291.486 28.8894 291.585 28.6753 291.585 28.4118C291.585 28.1483 291.486 27.9341 291.288 27.7694C291.091 27.6047 290.831 27.5224 290.51 27.5224H288.669V29.3012H290.51Z" fill="#333333" fill-opacity="0.8"/>
<g clip-path="url(#clip0_1_1301)">
<path d="M1.16987 21.8638C-2.02854 9.66658 1.08096 4.50982 13.6078 1.23691C26.1347 -2.03602 31.3765 0.938793 34.5748 13.1361C37.7732 25.3334 34.6637 30.4902 22.137 33.7631C9.61 37.036 4.36826 34.0613 1.16987 21.8638Z" fill="#D3DFF9"/>
<path d="M15.502 9.56976L9.87641 15.1953C8.59682 16.4749 8.59682 18.5495 9.87641 19.8291L15.4771 25.4297C16.7566 26.7093 18.8313 26.7093 20.1109 25.4297L25.7364 19.8042C27.016 18.5246 27.016 16.45 25.7364 15.1704L20.1358 9.56976C18.8562 8.29017 16.7815 8.29017 15.502 9.56976Z" fill="#2E6CEE"/>
<path d="M50.1271 26.0441V16.3577C50.1271 14.1028 51.4953 12.4832 53.4043 12.4832C55.3134 12.4832 56.6179 14.1028 56.6179 16.3577V26.0441H60.277V16.3577C60.277 14.1028 61.6451 12.4832 63.5542 12.4832C65.4632 12.4832 66.7678 14.1028 66.7678 16.3577V26.0441H70.4268V16.0083C70.4268 12.0385 67.9768 9.21204 64.5087 9.21204C61.9315 9.21204 60.1815 10.7047 59.4496 12.1973C58.6224 10.3553 56.777 9.21204 54.5498 9.21204C52.1634 9.21204 50.6681 10.5141 49.8726 11.8798L49.2043 9.52963H46.4681V26.0441H50.1271Z" fill="#333333"/>
<path d="M90.3105 17.5963C90.3105 12.8325 86.7469 9.21204 81.7197 9.21204C76.6926 9.21204 73.129 12.8007 73.129 17.7868C73.129 22.7728 76.6926 26.3616 81.7197 26.3616C85.1561 26.3616 88.4015 24.7419 89.6424 21.5979L86.2061 21.0261C85.4107 22.2012 83.8833 23.0269 81.9425 23.0269C79.1425 23.0269 77.2971 21.3121 76.9471 18.7714H90.2469C90.2788 18.422 90.3105 18.0408 90.3105 17.5963ZM81.7197 12.3879C84.0107 12.3879 85.7288 13.8488 86.3333 15.9131H77.1699C77.7744 13.7853 79.4926 12.3879 81.7197 12.3879Z" fill="#333333"/>
<path d="M99.3027 22.8683C98.0617 22.8683 97.4572 22.2649 97.4572 21.0262V12.7056H102.389V9.52976H97.4572V4.76599H94.7209L93.7981 9.52976H91.0938V12.7056H93.7981V21.0262C93.7981 24.2656 95.6755 26.0442 99.3027 26.0442H102.389L102.707 22.8683H99.3027Z" fill="#333333"/>
<path d="M112.01 9.21204C108.797 9.21204 105.965 10.8635 105.137 13.7217L108.51 14.2934C109.019 13.2771 110.165 12.3244 111.819 12.3244C113.824 12.3244 115.001 13.7535 115.16 15.9131H111.597C106.728 15.9131 104.31 18.0408 104.31 21.0897C104.31 24.1703 106.697 26.3616 110.069 26.3616C112.774 26.3616 114.587 24.8054 115.383 23.4398L116.146 26.0441H118.851V16.7706C118.851 11.975 116.242 9.21204 112.01 9.21204ZM110.928 23.281C109.147 23.281 108.001 22.36 108.001 20.9309C108.001 19.6605 108.924 18.7714 111.724 18.7714H115.192C115.192 21.4708 113.474 23.281 110.928 23.281Z" fill="#333333"/>
</g>
<rect x="131.765" y="2.05884" width="3.08824" height="30.8824" rx="1.54412" fill="#DCE4E7"/>
<defs>
<clipPath id="clip0_1_1301">
<rect width="118.851" height="35" fill="white"/>
</clipPath>
</defs>
</svg>
