<?xml version="1.0" encoding="UTF-8"?>
<!DOCTYPE svg PUBLIC "-//W3C//DTD SVG 1.1//EN" "http://www.w3.org/Graphics/SVG/1.1/DTD/svg11.dtd">
<svg xmlns="http://www.w3.org/2000/svg" version="1.1" width="500px" height="500px" style="shape-rendering:geometricPrecision; text-rendering:geometricPrecision; image-rendering:optimizeQuality; fill-rule:evenodd; clip-rule:evenodd" xmlns:xlink="http://www.w3.org/1999/xlink">
<g><path style="opacity:1" fill="#fefefe" d="M -0.5,-0.5 C 166.167,-0.5 332.833,-0.5 499.5,-0.5C 499.5,166.167 499.5,332.833 499.5,499.5C 332.833,499.5 166.167,499.5 -0.5,499.5C -0.5,332.833 -0.5,166.167 -0.5,-0.5 Z"/></g>
<g><path style="opacity:1" fill="#5372ff" d="M 103.5,169.5 C 125.169,169.333 146.836,169.5 168.5,170C 171.875,171.029 173.042,173.196 172,176.5C 168.794,180.281 165.128,183.615 161,186.5C 152.728,212.316 145.062,238.316 138,264.5C 127.812,288.356 109.646,299.689 83.5,298.5C 68.5517,299.463 55.7184,294.797 45,284.5C 34.9688,269.284 36.8022,255.784 50.5,244C 73.3947,237.559 82.5613,246.059 78,269.5C 76.7045,273.767 74.2045,277.1 70.5,279.5C 76.1264,282.717 80.9598,281.717 85,276.5C 93.9469,249.386 102.28,222.052 110,194.5C 110.667,191.833 110.667,189.167 110,186.5C 106.437,183.725 103.104,180.725 100,177.5C 98.7801,173.707 99.9468,171.04 103.5,169.5 Z"/></g>
<g><path style="opacity:1" fill="#363636" d="M 166.5,221.5 C 176.437,220.37 185.104,223.037 192.5,229.5C 190.164,234.175 187.331,238.508 184,242.5C 179.899,239.709 175.399,238.875 170.5,240C 165.167,245 165.167,250 170.5,255C 175.455,257.129 179.955,256.296 184,252.5C 187.03,256.698 189.863,261.032 192.5,265.5C 187.106,271.082 180.439,273.748 172.5,273.5C 153.817,270.981 145.317,260.314 147,241.5C 150.351,231.65 156.851,224.983 166.5,221.5 Z"/></g>
<g><path style="opacity:1" fill="#353535" d="M 218.5,221.5 C 230.161,220.331 239.994,223.997 248,232.5C 255.66,246.43 253.493,258.597 241.5,269C 225.885,277.053 212.385,274.553 201,261.5C 192.954,241.936 198.787,228.603 218.5,221.5 Z"/></g>
<g><path style="opacity:1" fill="#353535" d="M 316.5,222.5 C 326.506,222.334 336.506,222.5 346.5,223C 357.064,225.889 361.564,232.722 360,243.5C 358.811,247.379 356.978,250.879 354.5,254C 357.909,260.15 361.576,266.15 365.5,272C 358.5,272.667 351.5,272.667 344.5,272C 341.794,266.753 338.96,261.586 336,256.5C 335.501,261.823 335.334,267.156 335.5,272.5C 329.167,272.5 322.833,272.5 316.5,272.5C 316.5,255.833 316.5,239.167 316.5,222.5 Z"/></g>
<g><path style="opacity:1" fill="#363636" d="M 382.5,221.5 C 389.947,220.945 396.947,222.445 403.5,226C 404.899,227.062 405.899,228.395 406.5,230C 404.881,233.403 402.881,236.57 400.5,239.5C 398.032,237.931 395.366,236.931 392.5,236.5C 390.681,236.342 389.348,237.009 388.5,238.5C 393.433,241.304 398.433,244.137 403.5,247C 410.597,260.016 406.931,268.683 392.5,273C 385.976,274.011 379.643,273.345 373.5,271C 370.084,269.75 367.417,267.583 365.5,264.5C 367.864,261.301 370.03,257.968 372,254.5C 376.166,258.027 380.999,259.36 386.5,258.5C 386.719,257.325 386.386,256.325 385.5,255.5C 379.413,253.577 374.246,250.243 370,245.5C 366.487,239.587 366.821,233.92 371,228.5C 374.514,225.5 378.347,223.167 382.5,221.5 Z"/></g>
<g><path style="opacity:1" fill="#333333" d="M 278.5,249.5 C 278.418,253.251 280.251,255.251 284,255.5C 287.41,254.925 289.243,252.925 289.5,249.5C 290.493,241.016 290.826,232.349 290.5,223.5C 296.167,223.5 301.833,223.5 307.5,223.5C 307.5,233.833 307.5,244.167 307.5,254.5C 302.288,270.765 291.288,276.598 274.5,272C 266.869,268.589 262.203,262.755 260.5,254.5C 260.5,244.167 260.5,233.833 260.5,223.5C 266.167,223.5 271.833,223.5 277.5,223.5C 277.174,232.349 277.507,241.016 278.5,249.5 Z"/></g>
<g><path style="opacity:1" fill="#606060" d="M 278.5,249.5 C 277.507,241.016 277.174,232.349 277.5,223.5C 271.833,223.5 266.167,223.5 260.5,223.5C 260.5,233.833 260.5,244.167 260.5,254.5C 259.506,244.013 259.172,233.346 259.5,222.5C 265.833,222.5 272.167,222.5 278.5,222.5C 278.5,231.5 278.5,240.5 278.5,249.5 Z"/></g>
<g><path style="opacity:1" fill="#6b6b6b" d="M 307.5,254.5 C 307.5,244.167 307.5,233.833 307.5,223.5C 301.833,223.5 296.167,223.5 290.5,223.5C 290.826,232.349 290.493,241.016 289.5,249.5C 289.5,240.5 289.5,231.5 289.5,222.5C 295.833,222.5 302.167,222.5 308.5,222.5C 308.828,233.346 308.494,244.013 307.5,254.5 Z"/></g>
<g><path style="opacity:1" fill="#343434" d="M 451.5,236.5 C 444.833,236.5 438.167,236.5 431.5,236.5C 431.232,238.099 431.566,239.432 432.5,240.5C 438.5,240.5 444.5,240.5 450.5,240.5C 450.5,245.167 450.5,249.833 450.5,254.5C 444.167,254.5 437.833,254.5 431.5,254.5C 431.5,255.833 431.5,257.167 431.5,258.5C 438.833,258.5 446.167,258.5 453.5,258.5C 453.5,263.167 453.5,267.833 453.5,272.5C 440.167,272.5 426.833,272.5 413.5,272.5C 413.5,255.833 413.5,239.167 413.5,222.5C 426.167,222.5 438.833,222.5 451.5,222.5C 451.5,227.167 451.5,231.833 451.5,236.5 Z"/></g>
<g><path style="opacity:1" fill="#f5f5f5" d="M 335.5,235.5 C 341.488,235.664 342.821,238.164 339.5,243C 338.207,243.49 336.873,243.657 335.5,243.5C 335.5,240.833 335.5,238.167 335.5,235.5 Z"/></g>
<g><path style="opacity:1" fill="#aeaeae" d="M 451.5,236.5 C 445.355,237.49 439.022,237.823 432.5,237.5C 432.5,238.5 432.5,239.5 432.5,240.5C 431.566,239.432 431.232,238.099 431.5,236.5C 438.167,236.5 444.833,236.5 451.5,236.5 Z"/></g>
<g><path style="opacity:1" fill="#f7f7f7" d="M 221.5,239.5 C 230.152,238.986 233.652,242.986 232,251.5C 227.283,258.152 222.617,258.152 218,251.5C 216.593,246.556 217.759,242.556 221.5,239.5 Z"/></g>
<g><path style="opacity:1" fill="#cccccc" d="M 450.5,254.5 C 444.654,255.167 438.654,255.833 432.5,256.5C 439.655,257.167 446.655,257.833 453.5,258.5C 446.167,258.5 438.833,258.5 431.5,258.5C 431.5,257.167 431.5,255.833 431.5,254.5C 437.833,254.5 444.167,254.5 450.5,254.5 Z"/></g>
</svg>
