<svg width="110" height="33" viewBox="0 0 110 33" fill="none" xmlns="http://www.w3.org/2000/svg">
<g clip-path="url(#clip0_1_864)">
<path d="M1.08275 20.0859C-1.87747 8.88051 1.00046 4.14308 12.5944 1.13632C24.1884 -1.87045 29.0399 0.862451 31.9999 12.0679C34.9602 23.2734 32.0822 28.0108 20.4884 31.0175C8.89433 34.0242 4.04294 31.2914 1.08275 20.0859Z" fill="#2E6CEE" fill-opacity="0.2"/>
<path d="M14.3475 8.79156L9.14094 13.9596C7.95664 15.1352 7.95664 17.0411 9.14094 18.2166L14.3245 23.3618C15.5088 24.5374 17.4289 24.5374 18.6132 23.3618L23.8198 18.1938C25.0041 17.0182 25.0041 15.1123 23.8198 13.9368L18.6363 8.79156C17.452 7.61602 15.5318 7.61602 14.3475 8.79156Z" fill="#2E6CEE"/>
<path d="M46.3941 23.9262V15.0275C46.3941 12.956 47.6604 11.468 49.4273 11.468C51.1942 11.468 52.4015 12.956 52.4015 15.0275V23.9262H55.7881V15.0275C55.7881 12.956 57.0543 11.468 58.8212 11.468C60.5881 11.468 61.7955 12.956 61.7955 15.0275V23.9262H65.1821V14.7065C65.1821 11.0596 62.9145 8.46289 59.7047 8.46289C57.3194 8.46289 55.6997 9.83416 55.0224 11.2054C54.2568 9.51323 52.5488 8.46289 50.4874 8.46289C48.2787 8.46289 46.8948 9.65911 46.1586 10.9137L45.54 8.75466H43.0076V23.9262H46.3941Z" fill="#333333"/>
<path d="M83.5849 16.1653C83.5849 11.789 80.2867 8.46289 75.6339 8.46289C70.9811 8.46289 67.6829 11.7598 67.6829 16.3403C67.6829 20.9209 70.9811 24.2179 75.6339 24.2179C78.8144 24.2179 81.818 22.7299 82.9665 19.8415L79.7862 19.3163C79.0499 20.3958 77.6363 21.1544 75.8401 21.1544C73.2486 21.1544 71.5406 19.579 71.2166 17.2449H83.526C83.5555 16.9239 83.5849 16.5737 83.5849 16.1653ZM75.6339 11.3805C77.7542 11.3805 79.3444 12.7226 79.9039 14.6191H71.4229C71.9824 12.6642 73.5725 11.3805 75.6339 11.3805Z" fill="#333333"/>
<path d="M91.9074 21.0087C90.7589 21.0087 90.1994 20.4544 90.1994 19.3164V11.6724H94.7638V8.7548H90.1994V4.37842H87.6669L86.8128 8.7548H84.3098V11.6724H86.8128V19.3164C86.8128 22.2923 88.5503 23.9263 91.9074 23.9263H94.7638L95.0584 21.0087H91.9074Z" fill="#333333"/>
<path d="M103.669 8.46289C100.694 8.46289 98.0734 9.98005 97.3077 12.6059L100.429 13.131C100.9 12.1974 101.961 11.3221 103.492 11.3221C105.347 11.3221 106.437 12.6351 106.584 14.6191H103.286C98.7802 14.6191 96.5421 16.5737 96.5421 19.3747C96.5421 22.2048 98.7507 24.2179 101.872 24.2179C104.375 24.2179 106.054 22.7882 106.79 21.5336L107.497 23.9262H110V15.4068C110 11.0012 107.585 8.46289 103.669 8.46289ZM102.667 21.3878C101.018 21.3878 99.958 20.5417 99.958 19.2288C99.958 18.0617 100.812 17.2449 103.403 17.2449H106.613C106.613 19.7248 105.023 21.3878 102.667 21.3878Z" fill="#333333"/>
</g>
<defs>
<clipPath id="clip0_1_864">
<rect width="110" height="32.1538" fill="white"/>
</clipPath>
</defs>
</svg>
