<svg width="24" height="16" viewBox="0 0 24 16" fill="none" xmlns="http://www.w3.org/2000/svg">
<path style="fill: transparent !important;" d="M5.33301 7.99967C5.33301 4.31778 8.31778 1.33301 11.9997 1.33301C15.6816 1.33301 18.6663 4.31778 18.6663 7.99967C18.6663 11.6816 15.6816 14.6663 11.9997 14.6663C8.31778 14.6663 5.33301 11.6816 5.33301 7.99967Z" fill="transparent"/>
<path fill-rule="evenodd" clip-rule="evenodd" d="M5.99967 7.99967C5.99967 11.3134 8.68597 13.9997 11.9997 13.9997C15.3134 13.9997 17.9997 11.3134 17.9997 7.99967C17.9997 4.68597 15.3134 1.99967 11.9997 1.99967C8.68597 1.99967 5.99967 4.68597 5.99967 7.99967ZM11.9997 1.33301C8.31778 1.33301 5.33301 4.31778 5.33301 7.99967C5.33301 11.6816 8.31778 14.6663 11.9997 14.6663C15.6816 14.6663 18.6663 11.6816 18.6663 7.99967C18.6663 4.31778 15.6816 1.33301 11.9997 1.33301Z" fill="#EB8080"/>
<path d="M12.4759 10.2384C12.4759 9.92283 12.22 9.66699 11.9044 9.66699C11.5888 9.66699 11.333 9.92283 11.333 10.2384C11.333 10.554 11.5888 10.8098 11.9044 10.8098C12.22 10.8098 12.4759 10.554 12.4759 10.2384Z" fill="#EB8080"/>
<path d="M12.333 5.09556C12.333 4.85887 12.1411 4.66699 11.9044 4.66699C11.6817 4.66699 11.4986 4.83696 11.4778 5.05429L11.4759 5.09556V8.23842C11.4759 8.47511 11.6677 8.66699 11.9044 8.66699C12.1272 8.66699 12.3103 8.49702 12.331 8.2797L12.333 8.23842V5.09556Z" fill="#EB8080"/>
</svg>
