<svg width="24" height="24" viewBox="0 0 24 24" fill="none" xmlns="http://www.w3.org/2000/svg">
<g clip-path="url(#clip0_5038_43490)">
<path d="M17.1542 4.71387C18.4915 4.71387 18.9764 4.85311 19.4653 5.11457C19.9542 5.37603 20.3378 5.75971 20.5993 6.2486C20.8608 6.73749 21 7.22242 21 8.5597V15.4395C21 16.7767 20.8608 17.2617 20.5993 17.7506C20.3378 18.2395 19.9542 18.6231 19.4653 18.8846C18.9764 19.1461 18.4915 19.2853 17.1542 19.2853H6.84583C5.50855 19.2853 5.02362 19.1461 4.53473 18.8846C4.04584 18.6231 3.66216 18.2395 3.4007 17.7506C3.13924 17.2617 3 16.7767 3 15.4395V8.5597C3 7.22242 3.13924 6.73749 3.4007 6.2486C3.66216 5.75971 4.04584 5.37603 4.53473 5.11457C5.02362 4.85311 5.50855 4.71387 6.84583 4.71387H17.1542ZM19.7141 9.57515L12.8082 12.7632C12.2954 12.9998 11.7046 12.9998 11.1918 12.7632L4.28556 9.57558L4.28571 15.4395C4.28571 16.4646 4.35055 16.8003 4.53446 17.1442C4.67609 17.4091 4.87624 17.6092 5.14107 17.7508C5.48495 17.9347 5.8207 17.9996 6.84583 17.9996H17.1542C18.1793 17.9996 18.515 17.9347 18.8589 17.7508C19.1238 17.6092 19.3239 17.4091 19.4655 17.1442C19.6495 16.8003 19.7143 16.4646 19.7143 15.4395L19.7141 9.57515ZM17.2788 5.99992L6.84583 5.99958C5.8207 5.99958 5.48495 6.06442 5.14107 6.24833C4.87624 6.38996 4.67609 6.59011 4.53446 6.85494C4.37677 7.14979 4.30662 7.43865 4.28983 8.16121L11.7306 11.5958C11.9015 11.6747 12.0985 11.6747 12.2694 11.5958L19.7102 8.16077C19.6933 7.43854 19.6232 7.14973 19.4655 6.85494C19.3239 6.59011 19.1238 6.38996 18.8589 6.24833C18.5294 6.07208 18.2073 6.00519 17.2788 5.99992Z" fill="#7C7C7C"/>
</g>
<defs>
<clipPath id="clip0_5038_43490">
<rect width="24" height="24" fill="white"/>
</clipPath>
</defs>
</svg>
