<svg width="24" height="24" viewBox="0 0 24 24" fill="none" xmlns="http://www.w3.org/2000/svg">
<path d="M12 2C14.599 2 16.7059 4.03507 16.7059 6.54545L16.7067 9.28548C17.3732 9.32116 17.8242 9.43559 18.2911 9.67674C18.8438 9.96229 19.2861 10.3895 19.5817 10.9234C19.8925 11.4847 20 12.0224 20 12.9672V18.3056C20 19.2503 19.8925 19.788 19.5817 20.3493C19.2861 20.8832 18.8438 21.3104 18.2911 21.596C17.71 21.8962 17.1533 22 16.1752 22H7.82483C6.8467 22 6.29005 21.8962 5.70895 21.596C5.15617 21.3104 4.7139 20.8832 4.41827 20.3493C4.10749 19.788 4 19.2503 4 18.3056V12.9672C4 12.0224 4.10749 11.4847 4.41827 10.9234C4.7139 10.3895 5.15617 9.96229 5.70895 9.67674C6.17588 9.43553 6.62704 9.3211 7.29377 9.28545L7.29412 6.54545C7.29412 4.03507 9.40101 2 12 2ZM16.1752 10.6364H7.82483C6.98576 10.6364 6.68149 10.7208 6.37473 10.8792C6.06798 11.0377 5.82724 11.2702 5.66318 11.5665C5.49913 11.8628 5.41176 12.1567 5.41176 12.9672V18.3056C5.41176 19.116 5.49913 19.4099 5.66318 19.7062C5.82724 20.0025 6.06798 20.2351 6.37473 20.3935C6.68149 20.552 6.98576 20.6364 7.82483 20.6364H16.1752C17.0142 20.6364 17.3185 20.552 17.6253 20.3935C17.932 20.2351 18.1728 20.0025 18.3368 19.7062C18.5009 19.4099 18.5882 19.116 18.5882 18.3056V12.9672C18.5882 12.1567 18.5009 11.8628 18.3368 11.5665C18.1728 11.2702 17.932 11.0377 17.6253 10.8792C17.3185 10.7208 17.0142 10.6364 16.1752 10.6364ZM12 3.36364C10.1807 3.36364 8.70588 4.78818 8.70588 6.54545V9.27273H15.2941V6.54545C15.2941 4.78818 13.8193 3.36364 12 3.36364Z" fill="#7C7C7C"/>
<path d="M13.8 14.3C13.8 13.3059 12.9941 12.5 12 12.5C11.0058 12.5 10.2 13.3059 10.2 14.3C10.2 15.0838 10.7009 15.7505 11.4 15.9976L11.4 17.9C11.4 18.2314 11.6686 18.5 12 18.5C12.3313 18.5 12.6 18.2314 12.6 17.9L12.6005 15.9974C13.2993 15.7501 13.8 15.0835 13.8 14.3Z" fill="#7C7C7C"/>
</svg>
